<?xml version="1.0" encoding="utf-8"?>
<!-- Generator: Adobe Illustrator 25.4.1, SVG Export Plug-In . SVG Version: 6.00 Build 0)  -->
<svg version="1.1" id="Layer_1" xmlns="http://www.w3.org/2000/svg" xmlns:xlink="http://www.w3.org/1999/xlink" x="0px" y="0px"
	 viewBox="0 0 595.28 841.89" style="enable-background:new 0 0 595.28 841.89;" xml:space="preserve">
<style type="text/css">
	.st0{fill:url(#SVGID_1_);}
	.st1{fill:url(#SVGID_00000056411221288364107050000010556292818911943832_);}
	.st2{fill:url(#SVGID_00000137097520103332557970000005342532100377970826_);}
	.st3{fill:url(#SVGID_00000095332430942541313360000002292295272815070355_);}
	.st4{fill:url(#SVGID_00000173879929415025375740000011846046670070949002_);}
	.st5{fill:url(#SVGID_00000101101058747437827800000014159964748302664590_);}
	.st6{fill:url(#SVGID_00000153691017648957646750000017817016540085808311_);}
	.st7{fill:url(#SVGID_00000137127414478964045840000017905978424857768889_);}
	.st8{fill:url(#SVGID_00000133488661769623970860000018426489966323962011_);}
	.st9{fill:url(#SVGID_00000033351624204941547630000001274380796067514781_);}
	.st10{fill:url(#SVGID_00000002355061982105138040000013639864187040623023_);}
	.st11{fill:url(#SVGID_00000136370724154082071030000008074791762934425995_);}
	.st12{fill:url(#SVGID_00000031166457714082872850000017246057246819037331_);}
	.st13{fill:url(#SVGID_00000032619684353459297410000009842717527488228483_);}
	.st14{fill:url(#SVGID_00000120553195024175343440000005832865867258648737_);}
</style>
<g>
	<radialGradient id="SVGID_1_" cx="297.6378" cy="323.2565" r="240.3987" gradientUnits="userSpaceOnUse">
		<stop  offset="0" style="stop-color:#FFFD85"/>
		<stop  offset="0.2441" style="stop-color:#EBDA5E"/>
		<stop  offset="0.5229" style="stop-color:#D7B839"/>
		<stop  offset="0.7475" style="stop-color:#CAA422"/>
		<stop  offset="0.8883" style="stop-color:#C69C19"/>
	</radialGradient>
	<path class="st0" d="M546.72,366.34c-1.14-1.39-0.86-3.87-1.52-5.76c-0.27-0.77-1.28-1.53-2.11-1.8c-3.15-1.02-6.35-1.82-9.49-2.94
		c-5.04-1.79-11.55,4.9-9.68,10.58c1.57,4.76,0.84,5.54-4.21,7.25c0.04-0.38,0.09-0.7,0.12-1.02c0.89-10.65,2.13-21.29,2.5-31.97
		c0.17-4.98,1.44-8.84,5.09-12.11c2.29-2.05,4.45-1.88,5.72,0.95c1.22,2.73,3.34,4.08,6.09,4.69c5.25,1.17,10.79-4.31,9.26-9.26
		c0.41-0.37,0.89-0.74,1.29-1.18c3.61-3.9,2.65-8.65-2.45-10.68c-0.63-0.25-1.14-1.16-1.41-1.88c-1.7-4.44-5.27-5.82-9.48-3.72
		c-0.69,0.35-1.82,0.24-2.59-0.05c-2.8-1.08-5.42-0.73-7.44,1.32c-2.9,2.94-3.5,5.71-0.96,10.86c1.76,3.58,0.4,7.28-3.55,9.19
		c-0.34-4.47-0.27-8.93-1.1-13.23c-2.19-11.4-4.62-22.76-7.29-34.05c-0.64-2.7-0.06-4.68,1.22-6.74c2.01-3.25,4.03-3.72,7.34-1.78
		c1.12,0.66,2.15,1.46,3.32,2.02c3.01,1.44,5.88,0.96,8.53-0.92c2.49-1.77,4.14-4.18,3.55-7.26c-0.41-2.16-0.23-3.94,0.39-6.02
		c0.39-1.32-0.25-3.66-1.28-4.56c-3.09-2.67-6.58-4.88-9.95-7.21c-0.38-0.27-1.04-0.4-1.49-0.28c-4.13,1.04-8.59,1.48-12.27,3.41
		c-4.86,2.55-5.2,8.71-1.15,13.43c2.74,3.19,3.03,4.35-0.72,7.96c-0.44-1-0.85-1.92-1.26-2.85c-4.59-10.3-8.82-20.77-13.9-30.82
		c-2.83-5.58-1.54-10.02,1.33-15.04c2.06,1.01,4,2.04,6.01,2.92c3.26,1.44,6.27,0.92,8.8-1.58c2.62-2.59,2.92-5.7,1.78-9.09
		c-0.29-0.87-0.66-1.85-0.52-2.7c0.84-5.25-1.99-8.75-7.18-8.82c-0.65-0.01-1.43-0.41-1.9-0.87c-2.54-2.52-5.65-2.88-8.63-0.96
		c-1.65,1.06-3.34,2.07-5.06,3.02c-3.53,1.95-5.71,6.45-4.15,9.32c1.1,2.02,2.6,3.87,4.19,5.55c2.45,2.57,2.56,5.99-0.09,8.94
		c-1.25-2.21-2.33-4.47-3.72-6.53c-8.17-12.1-16.49-24.1-26.68-34.63c-2.34-2.42-2.79-5.02-2.3-8.05c0.67-4.09,1.48-4.6,5.51-3.59
		c4.51,1.13,7.51-0.33,9.65-4.69c2.23-4.56,1.63-7.58-2-10.56c-0.59-0.49-1.22-1.27-1.31-1.98c-0.59-4.33-3.41-6.54-7.64-5.95
		c-0.68,0.09-1.54-0.09-2.13-0.44c-4.74-2.82-8.29-1.64-10.56,3.39c-0.5,1.11-1.5,2.14-2.53,2.82c-1.89,1.24-2.96,2.84-3.1,5.06
		c-0.25,3.96,3.4,8.81,7.94,10.56c3.07,1.19,3.71,3.41,1.85,6.9c-4.16-3.53-8.14-7.24-12.45-10.51
		c-7.29-5.53-14.72-10.88-22.24-16.09c-2.43-1.68-3.3-3.55-3.2-6.43c0.16-4.77,0-4.78,4.78-4.91c0.26-0.01,0.52-0.01,0.77-0.06
		c3.3-0.66,5.92-3.97,6.68-8.42c0.49-2.88-1.21-6.15-3.9-7.88c-0.69-0.44-1.31-1.26-1.58-2.04c-1.46-4.16-4.63-5.61-8.76-4.07
		c-1.09,0.41-2.45,0.42-3.62,0.24c-3.75-0.6-7.26,1.5-7.63,5.2c-0.19,1.91-1.02,3.14-2.14,4.45c-2.5,2.92-2.83,6.33-0.99,9.26
		c2.11,3.35,6.15,4.94,9.7,4.06c0.69-0.17,2.14,0.35,2.31,0.86c0.56,1.69,0.69,3.52,1.06,5.68c-0.98-0.3-1.31-0.36-1.61-0.49
		c-10.36-4.46-20.71-8.93-31.06-13.4c-2.28-0.98-3.73-5.48-2.26-7.47c0.53-0.71,1.59-1.33,2.46-1.42c3.52-0.33,5.32-1.54,6.36-4.66
		c1.03-3.09,0.22-5.92-2.04-8.02c-1.08-1.01-2.05-2.23-2.75-3.53c-1.9-3.53-5.73-4.87-9.43-3.22c-0.8,0.36-1.82,0.61-2.66,0.46
		c-5.12-0.92-8.77,3.09-7.32,8.17c-4.72,4.29-4.09,9.19,1.68,11.87c2.3,1.07,4.82,1.7,7.27,2.43c1.85,0.55,2.84,1.57,2.6,3.78
		c-11.14-4.11-22.64-5.77-34.08-7.71c-3.95-0.67-3.95-0.64-4.09-4.5c-0.19-5.22-5.49-8.36-10.18-6.11
		c-0.78,0.37-1.78,0.43-2.67,0.39c-3.24-0.16-7.51,3.53-6.82,6.35c0.44,1.77-0.11,2.61-1.17,3.76c-1.93,2.08-1.95,4.3,0.23,6.13
		c2.47,2.06,5.68,3.15,7.95,5.56c0.19,0.2,0.65,0.15,0.99,0.23c5.51,1.3,9.9-2.71,10.89-8.59c13.17,0.68,25.77,4.02,38.65,8.29
		c-0.98,0.86-1.69,1.37-2.25,2.01c-1.41,1.64-2.74,2.01-4.61,0.5c-1.45-1.17-3.19-2.04-4.9-2.81c-5.34-2.41-9.83-0.26-11.3,5.24
		c-0.19,0.72-0.65,1.39-1.05,2.04c-2.32,3.74-2.22,7.94,2.31,9.98c0.67,0.3,1.24,1.28,1.45,2.06c1.15,4.22,5.01,6.04,9.08,4.25
		c0.71-0.31,1.62-0.46,2.38-0.32c3.95,0.72,7.8-2.11,8.34-6.17c0.38-2.85-0.26-5.43-1.52-7.99c-0.46-0.93-0.65-2.52-0.15-3.29
		c1.64-2.55,5.7-3.91,8.46-2.76c8.96,3.76,17.84,7.69,26.73,11.61c0.92,0.41,1.66,1.23,2.59,1.94c-3.69,2.71-4.73,2.68-7.6,0.07
		c-6.2-5.64-13.04-4.72-16.16,2.13c-0.8,1.76-1.71,3.48-2.67,5.16c-1.55,2.74-0.92,5.44,1.77,7.16c0.64,0.4,1.34,0.71,1.96,1.04
		c0.12,6.35,3.82,8.92,9.71,6.93c0.58-0.2,1.33-0.16,1.92,0.02c3.58,1.08,6.44,0.3,8.83-2.5c2.62-3.07,2.78-7.12,0.38-11.59
		c-0.63-1.18-1.32-2.27,0.1-3.4c2.98-2.39,6.81-2.83,9.94-0.59c8.76,6.28,17.46,12.65,26.07,19.14c2.92,2.2,5.52,4.84,8.56,7.54
		c-1.75,0.89-3.06,1.51-4.33,2.21c-2.21,1.21-3.15,0.39-4.33-1.76c-1.31-2.4-3.22-4.78-5.47-6.29c-4.75-3.2-9.44-1.43-11.77,3.77
		c-0.41,0.91-1.36,1.67-2.22,2.29c-2.7,1.92-3.69,5.95-1.52,8.41c1.46,1.65,1.56,3.26,1.55,5.17c-0.01,4.05,3.86,7.13,7.87,6.5
		c0.73-0.12,1.72,0.3,2.34,0.79c2.12,1.66,4.34,2.23,6.98,1.46c4.92-1.43,8.66-8.03,6.26-12.82c-0.48-0.96-0.54-2.75,0.04-3.51
		c2.21-2.89,7.67-2.99,10.01-0.18c5.46,6.58,10.97,13.13,16.05,19.99c4.49,6.07,8.44,12.55,12.81,19.14
		c-1.08,0.15-1.58,0.21-2.08,0.29c-3.86,0.65-3.86,0.65-4.24-3.22c-0.48-4.95-4.79-8.67-9.72-8.44c-5.36,0.25-8.05,4.77-11.86,7.48
		c-0.8,0.57-1.44,2.37-1.14,3.27c1.27,3.81,1.29,7.82,2.26,11.64c1.22,4.81,6.9,3.02,9.65,5.94c0.84,0.89,3.15,0.88,4.64,0.57
		c4.79-0.99,7.33-4.55,7.34-10.13c0-2.95,2.33-3.09,4.14-3.78c1.54-0.59,2.87-0.06,3.65,1.52c4.25,8.66,8.59,17.27,12.72,25.99
		c1.41,2.97,2.32,6.17,3.5,9.4c-3.85,0.06-5.28-1.33-6-4.93c-0.33-1.66-0.8-3.4-1.66-4.84c-2.87-4.85-7.87-5.53-11.95-1.84
		c-0.51,0.46-1.33,0.71-2.04,0.79c-4.47,0.5-7.39,4.64-6.53,9.11c0.19,0.99,0.1,2.2-0.3,3.12c-2.04,4.64,0.42,8.99,5.49,9.64
		c0.66,0.08,1.5,0.45,1.84,0.97c2.43,3.58,6.58,4.72,10.29,2.52c2.74-1.63,4.83-3.69,5.04-7.31c0.29-4.8,3.54-4.63,6.5-2.67
		c0.87,0.58,1.37,1.94,1.72,3.04c3.94,12.25,6.36,24.83,8.11,37.55c0.35,2.55,0.42,5.15,0.65,8.04c-4.54-1.96-5.47-3.17-5.21-6.52
		c0.14-1.8,0.51-3.57,0.66-5.37c0.28-3.33-1.7-5.53-4.08-7.31c-2.15-1.61-4.43-1.33-6.7,0.19c-0.71,0.48-1.95,0.47-2.87,0.29
		c-4.89-0.96-7.8,0.99-8.81,5.87c-0.22,1.07-0.88,2.17-1.62,3c-2.58,2.92-2.25,6.69,0.81,9.04c0.76,0.58,1.47,1.45,1.79,2.34
		c2.2,5.94,8.89,6.44,12.6,3.6c1.5-1.15,2.78-2.62,4.36-3.63c0.97-0.62,2.47-1.16,3.47-0.86c3.06,0.93,6.18,5.54,6.07,8.84
		c-0.28,8.63-0.59,17.26-1.12,25.88c-0.24,3.88-1.03,7.72-1.6,11.84c-1.11-0.85-1.79-1.53-2.61-1.95c-2.14-1.08-2.12-2.51-1.11-4.42
		c0.8-1.51,1.4-3.15,1.88-4.79c0.96-3.29-0.46-6.03-2.73-8.14c-2.21-2.06-4.93-2.75-7.85-1.03c-0.45,0.26-1.31,0.19-1.8-0.06
		c-4.84-2.53-8.87-0.47-9.71,5.07c-0.6,0.23-1.25,0.45-1.87,0.73c-2.79,1.27-4.64,6.47-2.1,8.5c1.48,1.18,2.38,2.42,1.84,4.59
		c-0.23,0.92,0.63,2.3,1.32,3.22c3.2,4.29,10.71,4.14,14.04-0.19c0.73-0.95,1.46-1.9,2.34-3.03c1.91,1.21,3.76,2.27,5.48,3.51
		c1.44,1.04,2.34,2.29,1.68,4.38c-2.93,9.34-5.61,18.76-8.6,28.09c-1.24,3.85-3.03,7.52-4.65,11.47c-3.28-3.5-3.05-4.44-0.61-7.46
		c1.42-1.76,2.43-4.23,2.67-6.49c0.54-5.2-3.94-9.74-8.43-9.22c-1.14,0.13-2.61,0.03-3.48-0.6c-2.81-2.03-8.05,0.07-9.58,2.09
		c-0.99,1.3-2.14,2.59-3.5,3.45c-4.4,2.77-6,7.54-1.49,10.23c0.18,2.58-0.32,4.98,0.58,6.6c3.02,5.44,9.84,6.23,14.87,1.86
		c1.45-1.26,2.68-2.12,4.16-0.63c3.25,3.26,4.16,2.96,2.26,6.01c-4.96,7.98-9.98,15.92-15.13,23.78c-2.15,3.28-4.7,6.31-7.21,9.63
		c-0.76-1.37-1.3-2.44-1.93-3.44c-1.08-1.74-0.82-2.9,1.07-3.97c1.71-0.96,3.31-2.22,4.7-3.6c2.98-2.97,3-6.59,1.75-10.34
		c-1.19-3.56-3.63-5.48-7.44-5.83c-0.9-0.08-1.96-0.82-2.53-1.57c-2.95-3.95-8.44-4.04-11.63-0.26c-0.91,1.08-2.31,1.94-3.65,2.42
		c-3.58,1.28-5.29,2.96-5.19,6.77c0.06,2.52-0.03,4.71-1.55,6.86c-0.53,0.75-0.44,2.18-0.21,3.2c1.5,6.51,8.06,9.68,14.88,7.03
		c2.54-0.98,4.49-0.46,5.77,1.6c2.1,3.39,2.39,5.32,0.4,7.45c-5.47,5.88-10.59,12.1-16.23,17.81c-4.58,4.64-9.71,8.73-15.05,13.47
		c0.24-2.96,0.33-5.25,0.68-7.49c0.08-0.49,1.06-0.86,1.65-1.24c2.95-1.87,6.4-3.25,8.74-5.69c3.9-4.05,2.77-9.75-1.63-12.43
		c-1.1-0.67-2.11-1.89-2.62-3.09c-2.01-4.81-6.98-6.43-11.39-3.69c-0.66,0.41-1.96,0.29-2.74-0.07c-5.55-2.55-11.26,0.85-11.33,6.93
		c-0.02,1.67-0.52,2.83-1.68,4.08c-4.84,5.2-3.09,12.34,3.46,15.16c2.92,1.25,5.68,0.99,8.55-0.01c2.53-0.88,4.46,0.09,4.67,2.34
		c0.37,4.1-0.59,7.58-4.3,10.11c-13.8,9.41-28.42,17.28-43.95,23.4c-17.2,6.78-34.88,11.74-53.2,14.55
		c-15.2,2.33-30.42,3.11-45.73,1.84c-16.99-1.41-33.57-4.92-49.72-10.4c-4.95-1.68-9.8-3.62-14.82-5.49
		c1.73-2.85,0.88-5.17-0.33-7.57c-2.83-5.59-8.14-8.61-12.74-12.29c-8.91-7.14-16.57-15.13-20-26.38c-0.08-0.25-0.29-0.46-0.53-0.84
		c-1.49,5.34-1.22,10.48-0.35,15.63c1.66,9.82,7.95,15.89,16.25,20.48c4.73,2.62,9.32,5.49,13.97,8.25c-0.1,0.2-0.19,0.39-0.29,0.59
		c-0.85-0.32-1.74-0.55-2.54-0.97c-9.36-4.97-18.67-10.02-28.06-14.92c-3.43-1.79-5.03-3.79-4.46-8.2
		c1.05-8.1-1.57-15.61-5.77-22.62c-3.98-6.64-7.94-13.34-8.38-21.41c-8.91,16.14-4.34,30.19,6.9,43.24
		c-5.98-3.77-10.75-8.73-15.18-14.05c-0.37-0.44-0.65-1.01-0.8-1.57c-1.49-5.68-1.78-11.46-0.89-17.22
		c1.19-7.7-0.07-14.87-3.5-21.82c-2.13-4.3-3.9-8.79-5.77-13.21c-0.44-1.03-0.63-2.16-0.94-3.25c-2.16,3.89-3.85,7.72-5.3,11.65
		c-1.78,4.82-1.64,9.84-0.87,14.83c1.3,8.42,5.68,15.43,10.31,22.33c0.95,1.41,1.89,2.82,2.84,4.22c-0.27,0.2-0.54,0.41-0.81,0.61
		c-8.87-10.22-17.74-20.43-26.48-30.51c0.43-0.7,0.49-0.88,0.61-0.98c0.47-0.37,0.98-0.71,1.45-1.08c4.74-3.78,7.69-8.53,8.17-14.7
		c0.39-5.01-0.72-9.75-2.3-14.44c-2.16-6.43-4.42-12.83-6.26-19.35c-0.83-2.96-0.76-6.17-1.15-9.79
		c-11.59,16.97-14.25,34.36-5.8,53.06c-0.82-0.73-1.35-1.46-1.79-2.25c-3.29-5.96-6.51-11.96-9.88-17.87
		c-0.87-1.52-0.78-2.42,0.39-3.79c1.25-1.46,2.15-3.33,2.82-5.16c2.3-6.24,1.44-12.66,0.3-18.93c-1.59-8.74-2.41-17.36,0.99-26.02
		c-12.08,6.14-17.33,19.43-13.09,32.68c1.33,4.14,2.62,8.3,3.93,12.45c-1.11-1.13-1.93-2.37-2.4-3.73
		c-3.27-9.6-6.44-19.25-9.71-28.85c-0.6-1.77-0.1-2.85,1.25-4.01c4.85-4.18,8.01-9.44,9.42-15.69c0.78-3.44,1.43-6.91,2.16-10.37
		c1.37-6.51,4.06-12.37,9.2-17.46c-16.08,3.71-23.56,13.29-25.31,32.38c-0.21-0.9-0.51-1.79-0.62-2.7
		c-0.71-5.83-1.45-11.65-2.03-17.49c-0.68-6.87-0.22-7.58,5.96-10.6c1.08-0.53,2.19-1.01,3.31-1.46
		c6.36-2.59,11.91-6.27,15.91-11.98c1.23-1.76,2.28-3.65,3.43-5.47c2.95-4.69,5.9-9.38,8.9-14.14c-6.89,1.93-14.11,2.76-20.43,6.72
		c-9.48,5.94-13.43,15.5-17.18,25.39c-0.09-12.98,0.72-25.74,3.45-38.38c0.71,0,1.14-0.03,1.57,0c9.79,0.7,17.56-3.28,24.14-10.23
		c2.07-2.19,4.32-4.27,6.74-6.05c2.43-1.79,5.17-3.16,7.84-4.76c-15.34-1.29-28.93,1.75-38.66,15.08
		c2.42-11.58,5.57-22.66,9.95-33.37c11.44,3.45,21.49,1.33,30.56-5.95c5.45-4.37,11.03-8.59,16.55-12.86
		c0.78-0.6,1.6-1.15,2.36-1.69c-7.61,0.4-15.1,0.79-22.59,1.18c-6.29,0.33-12.03,2.17-16.87,6.32c-2.37,2.03-4.64,4.17-6.96,6.26
		c-0.17-0.13-0.34-0.25-0.51-0.38c3.62-6.03,7.21-12.09,10.89-18.09c1.84-3,2.96-3.23,6.5-2.76c5.38,0.72,10.8,1.75,16.18,1.64
		c10.97-0.23,20.37-4.78,28.39-12.15c1.95-1.79,3.59-3.91,5.86-6.4c-1.16,0.15-1.44,0.12-1.64,0.22c-7.85,4.01-16.27,5.3-24.98,5.73
		c-5.74,0.29-11.48,1.09-17.17,2.02c-2.91,0.48-5.69,1.73-8.52,2.64c-0.16-0.2-0.32-0.4-0.48-0.6c4.09-4.99,8.27-9.9,12.22-15
		c2.08-2.68,4.5-3.71,7.82-3.26c2.47,0.34,4.99,0.32,7.49,0.45c8.86,0.48,17.54-0.47,25.26-5.05c6.39-3.79,12.36-8.3,18.69-12.62
		c-16.15-1.66-31.9-2.45-46.3,6.74c0.36-0.94,0.78-1.56,1.33-2.05c4.56-4.09,9.2-8.11,13.71-12.26c3.1-2.86,6.48-3.37,10.51-2.4
		c4.93,1.18,9.93,2.31,14.96,2.76c13.4,1.19,25.34-3.11,36.18-10.72c3.08-2.16,5.82-4.81,8.72-7.24c-0.16-0.2-0.32-0.41-0.48-0.61
		c-0.37,0.17-0.75,0.31-1.11,0.5c-10.14,5.35-20.94,6.71-32.14,5.06c-7.32-1.08-14.57-2.91-21.95-0.1c0.53-0.6,1.11-1.05,1.74-1.39
		c6.45-3.48,12.98-6.83,19.34-10.46c2.84-1.62,5.74-1.78,8.75-1.35c2.46,0.35,4.97,0.76,7.29,1.62c12.3,4.54,21.73-1.56,31.49-8.3
		c-11.06-0.88-21.68-2.16-32.33,0.2c7.93-2.34,15.52-6,24.1-5.06c11.01,1.21,18.7-6.14,27.51-10.76c-1.39-0.52-2.72-0.85-4.06-0.9
		c-5.5-0.21-11.02-0.67-16.51-0.4c-6.87,0.34-12.37,4.36-18.2,7.54c-5.03,2.74-10.47,4.72-15.74,7.04
		c-0.11-0.23-0.23-0.45-0.34-0.68c6.12-6.64,13.4-12.23,17.95-20.28c4.53-8.01,6.49-16.67,7.14-25.77c-2.21,2.75-3.96,5.83-6.27,8.4
		c-5.54,6.17-11.37,12.09-17.03,18.15c-5.72,6.13-8.14,13.21-5.85,21.66c-2.96,1.32-5.83,2.6-8.65,3.85
		c-1.58-5.48-0.99-10.53,1.44-15.33c1.83-3.61,3.94-7.07,5.75-10.68c2.47-4.92,4.78-9.93,7.15-14.9c-3.36,2.17-6.1,4.67-8.96,7.04
		c-5.92,4.89-12.24,9.36-17.78,14.64c-7.18,6.86-8.64,15.42-5.13,24.71c0.64,1.68,0.39,2.59-1.04,3.63
		c-4.61,3.35-9.16,6.78-13.66,10.28c-1.95,1.51-3.73,3.25-6.06,5.31c0.19-1.23,0.2-1.81,0.37-2.33c3.04-8.93,3.2-18.05,2.44-27.37
		c-0.52-6.42-0.32-12.92-0.11-19.37c0.08-2.4,1.1-4.76,1.69-7.14c-6.39,5.97-11.21,12.88-14.21,21.01
		c-5.15,13.96-5.05,28.23-2.42,42.61c0.36,1.95-0.07,3.27-1.37,4.65c-3.08,3.27-6.04,6.66-9.06,9.99c-2.1,2.32-4.2,4.63-6.31,6.94
		c-0.09-1.25,0.27-2.21,0.4-3.2c0.15-1.11,0.17-2.25,0.11-3.36c-0.58-10.41-4.68-19.09-12.56-26.02c-1.64-1.44-3.01-3.35-4.04-5.29
		c-2.02-3.79-2.78-7.88-1.74-12.23c-3.58,3.69-5.77,7.9-6.18,13.02c-0.53,6.53,1.16,12.53,4.38,18.08c3.4,5.86,5.5,11.87,5.2,18.85
		c-0.19,4.41,0.83,8.91,1.67,13.3c0.39,2.05,0.17,3.63-0.89,5.36c-3.02,4.92-5.91,9.92-8.87,14.88c-0.32,0.54-0.76,1-1.55,2.03
		c0.34-10.63-2.43-19.94-6.53-28.83c-4.09-8.87-8.68-17.52-13.04-26.26c-0.26,0.12-0.52,0.23-0.77,0.35
		c0.43,1.98,1.1,3.95,1.26,5.96c0.94,11.17,1.91,22.35,2.56,33.54c0.55,9.41,2.32,18.33,8.62,25.73c1.4,1.64,1.44,3.06,0.73,4.94
		c-2.45,6.52-4.8,13.08-7.15,19.63c-0.61,1.7-1.06,3.45-1.58,5.18c-0.01-23.79-16.2-41.21-32.17-47.93
		c1.99,4.79,4.58,9.72,6.09,14.97c2.31,8,3.91,16.21,5.76,24.35c2.07,9.11,5.96,17.19,13.97,22.46c2.38,1.56,3.16,3.04,2.63,5.57
		c-0.11,0.51-0.2,1.01-0.28,1.52c-0.97,6.38-2.11,12.75-2.84,19.16c-0.69,6.03-0.94,12.11-1.4,18.35c-0.23-0.56-0.5-1-0.6-1.47
		c-0.39-1.85-0.87-3.7-1.06-5.58c-1.42-13.42-6.22-25.4-15.22-35.53c-4.47-5.03-9.64-9.27-16.31-12.43
		c0.45,0.94,0.59,1.41,0.87,1.79c7.23,10.05,11.68,21.23,13.55,33.45c1.72,11.29,7.21,19.93,17.49,25.37
		c1.04,0.55,1.93,2.2,2.09,3.45c0.7,5.21,1.03,10.47,1.65,15.7c0.41,3.46,1.06,6.89,1.68,10.84c-0.54-0.62-0.78-0.78-0.86-1
		c-0.3-0.9-0.6-1.8-0.83-2.72c-2.67-10.59-8.16-18.78-18.55-23.41c-5.25-2.34-10.11-5.57-15.05-8.56c-2.24-1.36-4.25-3.11-6.42-4.72
		c4.92,9.26,9.45,18.52,14.71,27.35c2.41,4.05,5.98,7.57,9.54,10.75c4.68,4.17,10.52,6.49,16.47,8.38c1.24,0.39,2.06,0.81,2.59,2.37
		c2.9,8.55,5.91,17.07,9.23,25.46c1.81,4.57,4.32,8.88,6.51,13.3c-3.15-4.03-5.95-8.28-9.11-12.25
		c-11.08-13.93-25.31-19.01-42.74-12.59c-1.27,0.47-2.43,1.24-3.64,1.87c7.85,0.34,15,2.52,21.25,6.59
		c4.78,3.12,8.89,7.34,13.05,11.34c5.14,4.94,10.89,8.5,18.1,9.09c3.55,0.29,5.66,2.04,7.43,5.01c3.71,6.22,7.58,12.35,11.68,18.32
		c3.19,4.64,6.83,8.97,10.27,13.43c-7.03-7.12-14.66-13.28-24.21-16.78c-9.35-3.42-18.82-5.39-28.78-3.42
		c0.27,0.37,0.58,0.49,0.89,0.58c12.36,3.52,22.73,10.13,31.19,19.84c6.95,7.98,15.48,13.44,26.14,14.94
		c4.31,0.6,8.02,1.17,11.51,4.8c6.08,6.31,13.27,11.54,20,17.22c1.33,1.12,2.68,2.22,4.02,3.32c-2.4-0.95-4.47-2.31-6.58-3.62
		c-6.63-4.1-13.5-7.25-21.66-6.28c-5.4,0.64-10.85,0.78-16.27,1.33c-3.45,0.35-6.87,1.04-11,1.7c0.92,0.47,1.1,0.62,1.3,0.66
		c8.4,1.55,16.16,4.72,23.51,9.02c1.99,1.17,4.15,2.09,6.32,2.92c9.02,3.44,17.98,2.16,26.87-0.62c1.61-0.5,2.85-0.52,4.34,0.47
		c5.97,3.95,11.98,7.84,18.09,11.56c3.55,2.17,7.32,3.98,10.99,5.95c-3.28-0.75-6.47-1.72-9.52-3.03
		c-12.26-5.27-23.87-4.38-34.73,3.53c-3.44,2.5-5.87,5.88-7.55,9.79c3.16-1.48,6.07-3.26,9.23-4.24c7.19-2.23,14.52-2.07,21.66,0.24
		c8.26,2.67,16.13,2.32,23.59-2.3c1.98-1.22,3.65-0.83,5.54,0.08c20.25,9.79,41.53,16.01,63.89,18.69
		c16.22,1.94,32.44,2.05,48.63,0.27c16.13-1.78,31.9-5.45,47.29-10.63c19.46-6.54,37.95-15.08,54.75-27
		c4.59-3.26,9.21-3.41,14.15-1.23c1.61,0.71,2.45,1.66,1.91,3.63c-1.3,4.79,0.2,9.16,3.82,11.69c4.29,3,8.79,3,13.2,0.09
		c0.59-0.39,1.47-0.68,2.13-0.55c5.09,1.02,10.37-5.1,8.48-10.27c-0.24-0.65-0.16-1.77,0.25-2.24c3.55-3.99,0.49-10.85-4.1-12.18
		c-0.87-0.25-1.83-0.92-2.32-1.68c-4.15-6.32-12.66-5.35-16.3,0.7c-0.96,1.59-1.27,3.56-2.14,5.21c-0.44,0.83-1.49,1.94-2.22,1.91
		c-2.43-0.11-4.84-0.67-7.29-1.06c0.12-0.46,0.11-0.69,0.21-0.76c1.76-1.24,3.58-2.41,5.29-3.71c10.72-8.12,20.51-17.23,28.97-27.71
		c2.59-3.21,5.64-4.95,9.84-4.58c2.6,0.23,3.68,1.67,3.51,4.32c-0.11,1.73,0,3.64,0.62,5.23c2.53,6.49,11.29,8.13,15.87,3.13
		c0.37-0.4,1.17-0.68,1.71-0.61c3.73,0.54,6.82-0.91,8.56-4.16c1.63-3.04,1.03-6.07-1.75-8.82c1.61-5.09,1.24-8.19-2.34-9.93
		c-2.83-1.38-5.37-3.19-8.1-4.58c-5.36-2.72-13.11,2.22-13.58,8.35c-0.16,2.1-1.11,3.17-2.99,3.51c-1.86,0.34-3.75,0.49-5.82,0.74
		c3.46-4.47,7.05-8.58,10.05-13.08c4.77-7.17,9.3-14.51,13.63-21.96c2.05-3.53,5.33-4.32,8.72-5.2c1.69-0.44,2.6,0.46,2.93,2.06
		c0.35,1.69,0.63,3.39,1.05,5.06c0.73,2.89,2.77,4.68,5.55,5.17c2.88,0.5,5.9,0.67,8.01-2.22c0.56-0.77,1.44-1.57,2.31-1.79
		c3.32-0.83,5.21-3,5.95-6.15c0.71-3.04-0.65-5.35-3.25-6.92c2.06-3.63,1.9-5.87-1.42-8.04c-3.05-2-6.56-3.31-9.9-4.87
		c-0.51-0.24-1.17-0.17-1.76-0.17c-4.7,0.02-9.31,4.92-8.71,10.03c0.45,3.8-0.88,4.6-3.74,5.2c-0.7,0.15-1.36,0.55-2.46,1.02
		c0.36-1.1,0.51-1.83,0.82-2.5c5.48-12.02,9.8-24.44,12.44-37.37c0.86-4.21,3.01-6.59,6.79-7.83c0.8-0.26,2.25-0.18,2.68,0.34
		c1.22,1.47,2.05,3.27,3.08,4.91c3.17,5.02,10.26,4.79,13.25-0.34c0.58-1,1.67-1.88,2.73-2.39c2.6-1.26,3.74-3.13,3.38-6.02
		C549.54,369.22,548.04,367.95,546.72,366.34z M527.46,310.94c1.45-1.98,3.58-1.93,5.85-1.41c1.2,0.27,2.75,0.39,3.77-0.15
		c2.91-1.54,6.22-0.62,7.26,2.6c0.66,2.04,1.33,3.5,3.62,4.39c2.75,1.07,2.67,4.52-0.06,5.79c-1.91,0.89-1.9,1.94-1.44,3.63
		c0.66,2.41-1.36,5.18-4.11,5.91c-2.49,0.66-5.06-0.72-5.87-3.3c0.83-0.11,1.63-0.21,3.02-0.39c-1.85-1.3-3.82-2.05-4.61-3.45
		c-0.68-1.21,0-3.18,0.09-5c-0.9,0.3-2.01,0.66-3.49,1.15c-0.26-2.16-0.5-4.12-0.73-6.08c-0.22-0.12-0.44-0.23-0.66-0.35
		c-0.96,1.07-1.91,2.13-2.89,3.23C525.55,315.3,525.96,312.99,527.46,310.94z M513.36,262.66c-2.14-2.11-2.7-4.87-1.31-7.09
		c1.61-2.58,4.67-3.18,8.81-1.56c0.62-1.98,1.51-3.3,3.8-3.22c2.31,0.07,3.65,1.06,4.53,3.11c0.25,0.58,1.02,1.13,1.66,1.32
		c6.12,1.8,6.78,3.7,2.79,8.4c2.34,3.4,2.1,6.14-0.73,8.5c-2.38,1.98-5.06,1.8-7.29-0.54c0.69-0.98,1.39-1.99,2.1-2.99
		c-0.1-0.17-0.21-0.34-0.31-0.51c-0.73,0.26-1.45,0.56-2.19,0.77c-2.38,0.68-3.65-0.5-3.44-2.98c0.08-0.98-0.25-1.99-0.39-3.01
		c-1.27,0.93-2.51,1.84-4.21,3.09c-0.71-2.58-1.26-4.59-1.81-6.6c-0.18-0.08-0.36-0.16-0.54-0.24
		C514.32,260.32,513.83,261.53,513.36,262.66z M332.26,127.07c-1.62,0.77-3.05,1.45-4.75,2.26c1.33,0.57,2.23,0.96,3.65,1.57
		c-1.24,1.63-2.28,3-3.45,4.53c0.78,0.13,1.56,0.26,2.5,0.41c-0.36,2.5-2.27,2.93-4.08,3.1c-1.91,0.18-3.91-0.09-4.76-2.23
		c-0.56-1.43-1.27-2.07-2.93-2.29c-1.07-0.14-2.28-1.48-2.78-2.58c-0.26-0.57,0.76-1.86,1.39-2.68c0.44-0.57,1.2-0.9,1.79-1.32
		c-1.53-3.4-1.27-5.75,1.28-6.2c2.63-0.46,5.16-0.85,7.71-1.77c1.64-0.6,3.47,1.04,4.69,3.19c-1.12-0.18-1.92-0.31-3.46-0.57
		C330.31,124.3,331.19,125.55,332.26,127.07z M368.4,160.58c-1.86,1.27-3.36,1.14-5.95-0.6c-1.5,1.85-3.31,3.1-5.71,1.57
		c-1.76-1.12-3.2-2.51-1.92-4.84c-6.23-3.71-6.32-4.11-2.18-9.06c-0.24-0.08-0.47-0.16-0.71-0.24c0.35-1.37,0.31-3.07,1.13-4.04
		c2.08-2.46,5.21-2.51,9.13-0.5c-0.66,0.38-1.29,0.6-1.73,1.03c-0.44,0.42-0.67,1.05-1.17,1.88c3.05-1.23,5.55-0.51,6.78,1.67
		c-2.67,1.42-2.67,1.42-1.45,3.77c0.46-0.17,0.93-0.33,1.39-0.53c0.45-0.19,0.88-0.41,1.65-0.78c-0.14,2.14-0.26,3.97-0.42,6.51
		c1.32-1.23,2.18-2.04,3.12-2.92C371.12,156.63,370.35,159.25,368.4,160.58z M373.37,123.67c-0.26,1.76-0.46,3.07-0.7,4.69
		c-1.63-0.77-3.26-1.53-4.9-2.31c-0.69,1.24-0.69,1.24,1.24,3.74c-3.01,0.52-5.2-1.14-7.15-2.86c-1.81-1.6-1.27-4.57,1.04-6.25
		c1.28-0.93,1.7-1.56,0.79-3.04c-1.14-1.86,0.32-3.09,1.59-4.11c1.7-1.36,3.54-1.46,5.58-0.11c0.8-0.61,1.55-1.34,2.43-1.84
		c2.72-1.56,6.57,0.54,6.16,3.61c-0.3,2.25,0.97,2.32,2.26,2.92c1.99,0.93,3.06,2.45,2.54,4.76c-0.7,3.1-2.06,4.31-4.87,4.24
		c0.16-1.22,0.33-2.44,0.56-4.18c-1.65,1.45-2.79,2.45-3.97,3.5C375.1,125.53,374.43,124.8,373.37,123.67z M403.86,176.19
		c-2.57,2-4.32,1.98-7.34-0.2c-1.9,1.99-4.24,2.46-6.62,1.01c-2.19-1.34-2.19-3.5-1.18-5.79c-4.27-1.92-5.46-3.18-4.17-5.57
		c1.16-2.14,1.76-4.33,2.6-6.51c1.52-3.94,6.5-4.84,9.77-2.21c-0.43,0.55-0.86,1.11-1.25,1.6c1.39,1.05,2.67,2.02,3.89,2.94
		c-1.26,1.18-2.3,2.16-3.52,3.3c2.29,0.49,4.64,0.33,5.68,1.42c0.81,0.84-0.02,3.24,0.42,5.19c0.98-1.07,1.96-2.13,3.01-3.28
		C406.6,171.19,405.98,174.54,403.86,176.19z M414.49,139.87c-2.47-1.57-3.17-0.72-3.4,2.53c-2.12-1.4-3.8-2.51-5.66-3.73
		c0,1.15,0,2.29,0,4.09c-2.27-1.62-4.4-2.52-4.88-5.03c-0.57-2.99,1.24-4.4,4.03-5.18c-0.63-2.72-0.98-5.08,1.49-6.81
		c2.31-1.62,4.37-0.9,6.43,0.65c1.29-2,3.07-2.83,5.14-1.98c2.6,1.07,2.33,3.52,2.25,5.78c4.22,0.63,5.81,2.33,5.49,5.87
		c-0.36,3.95-2.91,6.27-6.5,6.2c0.64-1.14,1.34-2.41,2.05-3.67c-0.2-0.17-0.41-0.34-0.61-0.5c-0.53,0.43-1,1.09-1.6,1.24
		C417.31,139.68,415.42,140.46,414.49,139.87z M439.71,208.35c-3.09,1.03-4.48,0.31-5.96-3.28c-2.67,0.33-5.86,2.45-7.74-1.56
		c-0.95-2.02-0.82-3.52,1.04-6.37c-0.77-0.37-1.73-0.54-2.22-1.11c-0.82-0.97-1.96-2.28-1.83-3.3c0.15-1.14,1.37-2.55,2.48-3.06
		c1.44-0.66,2.29-0.98,2.45-2.9c0.1-1.25,1.6-2.9,2.87-3.43c2.41-1,5.05-1.08,7.25,1.45c-0.94,0.09-1.73,0.16-3.4,0.31
		c1.98,2.21,3.6,4.02,5.22,5.84c-0.96,1.27-1.87,2.46-3.21,4.23c2.28-0.18,3.66-0.29,5.77-0.46c-0.87,2.33-1.56,4.18-2.4,6.43
		c1.74-0.64,3.22-1.19,4.69-1.73C445.87,203.55,443.98,206.92,439.71,208.35z M453.25,171.72c-1.25-0.78-1.96-2.43-2.92-3.69
		c-0.2,0.08-0.4,0.16-0.6,0.25c0,0.98,0,1.96,0,2.94c-0.28,0.14-0.56,0.28-0.84,0.42c-1.07-1.72-2.36-3.35-3.11-5.21
		c-0.33-0.81,0.17-2.78,0.75-3c3.27-1.2,4.18-4.07,5.78-6.67c1.95-3.18,4.99-2.48,7.71,1.4c1.88-1.78,3.89-1.78,5.96-0.36
		c2.19,1.5,1.61,3.33,0.48,5.13c5.48,3.04,6.58,5.76,4.12,9.96c-1.77,3.03-3.7,3.58-6.69,1.9c0.58-1.18,1.17-2.36,1.99-4.01
		c-3.43,0.05-7.12,3.76-8.81-1.6C455.48,170.14,455.45,173.1,453.25,171.72z M472.93,248.48c-2.51,0.71-4.33-0.13-5.92-2
		c-0.48-0.56-1.18-1.09-1.88-1.28c-4.75-1.29-5.75-3.44-3.69-8.07c0.03-0.06-0.05-0.16-0.08-0.24c-2.91-2.67-3.24-5.68-0.84-7.58
		c0.2-0.16,0.41-0.39,0.64-0.43c2.18-0.38,3.63-1.19,4.83-3.48c1.07-2.05,4.09-2.03,6.39-1.34c2.03,0.61,3.67,1.88,3.8,4.49
		c-1.05,0-2.06,0-3.53,0c0.67,0.81,1.03,1.35,1.49,1.8c2.02,2,2.02,2.73-0.11,4.43c-1.21,0.97-1.43,1.58,0.37,2.17
		c1.05,0.34,1.92,1.26,3.12,2.08c-0.91,1.2-1.72,2.26-2.76,3.63c1,0.23,1.91,0.43,3.03,0.69
		C477.26,246.15,475.61,247.72,472.93,248.48z M492.93,213.91c-0.26-0.07-0.51-0.14-0.77-0.21c-0.56,1.39-1.12,2.78-1.71,4.23
		c-1.53-1.43-2.74-3.23-2.08-5.52c0.6-2.1,2.04-3.53,4.46-3.73c0.57-0.05,1.2-0.6,1.62-1.08c2.92-3.35,7.29-4.44,9.44-0.4
		c2.54,0.8,4.68,0.94,6.06,2.03c1.61,1.29,1.74,3.34,0.42,5.38c-0.34,0.52,0.46,1.96,0.98,2.83c1.18,1.97,1.25,3.89,0.11,5.87
		c-1.16,2.02-2.84,3.31-5.24,3.17c-1.04-0.06-2.06-0.57-3.29-0.93c1.08-1.71,1.85-2.91,2.87-4.53c-2.18,0.51-3.87,1.29-5.49,1.19
		c-2.77-0.18-1.26-2.86-2.06-4.47c-0.53,0.29-1.04,0.55-1.52,0.83c-0.6,0.35-1.54,1.15-1.72,1c-0.66-0.53-1.26-1.32-1.52-2.13
		C493.14,216.32,493.1,215.09,492.93,213.91z M487.83,287.1c-2.07-0.53-2.95-1.99-2.51-4.41c-0.99-0.11-1.96-0.34-2.93-0.3
		c-2.32,0.1-3.8-0.99-4.48-3.11c-0.68-2.12,0.03-3.68,2.15-4.59c0.55-0.24,0.94-0.83,1.41-1.26c-0.53-0.44-1.16-0.81-1.56-1.35
		c-0.58-0.78-1.44-1.71-1.38-2.52c0.2-2.67,2.02-4.01,4.9-4.56c1.17-0.23,2.25-1.14,3.29-1.86c2-1.38,4.09-1.25,6.14-0.33
		c1.59,0.72,2.93,1.81,2.65,4.02c-1,0.06-1.93,0.12-3.06,0.19c1.08,1.83,2.1,3.54,2.92,4.93c-1.61,1.16-2.96,2.13-4.52,3.25
		c0.53,0.26,0.81,0.48,1.11,0.53c1.02,0.18,2.05,0.3,3.07,0.45c-0.5,1.13-0.97,2.27-1.51,3.38c-0.18,0.36-0.52,0.64-0.91,1.1
		c1.19,0.59,2.24,1.1,3.26,1.61C495.48,285.49,490.84,287.86,487.83,287.1z M508.23,315.35c-0.54-0.47-0.99-0.92-1.5-1.27
		c-0.46-0.32-0.99-0.54-1.96-1.04c0.36,1,0.53,1.52,0.74,2.03c1.16,2.88,0.45,5.04-2.18,6.58c-2.66,1.55-2.66,1.63,0.31,3.62
		c-1.79,1.05-3.37,1.98-5.12,3.01c1.02,0.63,1.93,1.19,2.85,1.76c-4.59,3.01-8.58,1.45-9.92-3.8c-0.12-0.48-0.53-1.05-0.96-1.27
		c-1.64-0.85-3.25-1.97-2.64-3.9c0.47-1.49,1.91-2.66,3.42-4.61c-0.34-1.52-1.22-4.31,1.66-5.89c2.47-1.36,4.96-0.63,7.14,0.99
		c2.56-2.83,4.1-3.25,6.38-1.82C508.67,311.11,509.27,312.81,508.23,315.35z M507.59,364.2c-0.77-0.91-1.5-1.77-2.47-2.92
		c-0.24,1.73-0.42,3.12-0.64,4.5c-0.42,2.69-1.06,3.01-3.47,1.77c-0.28-0.14-0.57-0.25-1.58-0.69c0.51,1.15,0.81,1.66,0.96,2.2
		c0.36,1.32,0.65,2.52-1.39,2.85c-0.89,0.15-1.66,1.04-2.97,1.93c1.59,0.43,2.45,0.67,3.59,0.98c-2.18,1.71-4.27,2.16-6.63,1.3
		c-2.75-1.01-4.08-3.43-3.08-6.14c0.53-1.43,0.55-2.03-1.07-2.68c-0.94-0.38-2.08-1.91-1.98-2.8c0.12-1.09,1.24-2.42,2.28-2.97
		c1.37-0.73,2.37-0.96,2.53-3.04c0.24-3.26,3.47-4.75,6.41-3.23c1.62,0.83,2.83,0.86,4.52,0.11c2.09-0.93,4.04,0.02,5.48,1.78
		C509.55,358.95,509.4,361.52,507.59,364.2z M493.09,406.33c-0.13,2.22-0.24,4.26-0.39,6.9c-2.06-0.68-3.58-1.17-5.08-1.66
		c-0.56,4.58-0.66,4.7-4.63,5.06c1.32,0.99,2.25,1.69,3.17,2.37c-1.62,1.76-4.25,2.22-6.3,1.04c-3.32-1.91-3.96-4.13-2.62-9.07
		c-0.22,0.01-0.44,0.02-0.66,0.03c-0.73-1.43-2.3-3.11-1.97-4.22c0.42-1.42,2.23-2.7,3.74-3.43c1.37-0.67,2.24-1.14,2.9-2.73
		c0.54-1.28,2.39-2.29,3.88-2.81c2.24-0.79,4.02,0.25,4.76,2.54c4.42-1.31,7.34-0.59,8.67,2.02c1.09,2.12,0.18,5.25-2.11,6.99
		C495.83,407.67,495.07,406.09,493.09,406.33z M433.49,479.92c-1.08,1.24-2.33,3.92-4.02,4.24c-1.52,0.28-3.52-2.04-5.47-3.32
		c-1.3,1.11-1.27,1.33,1.25,5.23c-2.87,2.18-7.42,0-8.11-3.84c-0.61-3.42,0.51-6.04,3.29-8.11c0.58-0.43,1.23-1.52,1.07-2.07
		c-0.83-2.77-0.49-4.76,1.64-6.31c2.06-1.5,4.51-1.8,6.5-0.31c1.98,1.48,3.16,1.9,4.72-0.45c1.03-1.54,3.06-1.45,4.42-0.55
		c1.31,0.87,2.94,2.35,3.07,3.69c0.2,2,0.77,2.67,2.6,3.24c2.78,0.86,3.69,2.86,3.26,5.93c-0.48,3.44-2.36,5.75-4.45,5.94
		c-0.15-2.07-0.29-3.96-0.44-5.91c-1.67,1.41-2.82,3.07-4.31,3.46C437.05,481.17,435.25,480.28,433.49,479.92z M447.42,515.7
		c1.34,0.72,2.65,1.42,3.95,2.12c0.23-0.16,0.47-0.32,0.7-0.49c-0.83-2.02-1.66-4.05-2.58-6.3c2.13-0.27,3.98-0.51,6.52-0.84
		c-1.72-1.48-3.13-2.69-4.98-4.29c1.95-1.22,3.66-2.29,5.44-3.41c-1.05-2.56-3.65-1.17-5.51-1.73c0.62-2.61,3.05-4.52,5.89-4.97
		c2.83-0.45,4.99,0.57,6.77,2.65c0.14,0.16,0.16,0.5,0.11,0.74c-0.45,2.18,0.81,2.39,2.53,2.4c3.14,0.02,5.02,2.26,4.87,5.35
		c-0.1,2.1-1.7,2.6-3.11,3.38c-0.45,0.25-0.92,0.44-1.25,0.6c0.94,1.15,2.35,2.16,2.62,3.4c0.29,1.36-0.14,3.14-0.85,4.39
		c-1.72,3.04-4.02,3.4-7.75,1.64c-3.34,4.17-5.19,4.76-9.54,3.03C448.22,522.17,446.99,519.75,447.42,515.7z M467.52,446.78
		c-0.49-0.46-1.01-0.89-1.91-1.68c-0.22,1.1-0.66,1.93-0.46,2.57c0.58,1.86-0.64,2.91-1.81,3.48c-0.84,0.41-2.21-0.08-3.28-0.38
		c-1.07-0.3-2.07-0.88-3.11-1.33c-0.19,0.22-0.38,0.43-0.57,0.65c0.99,1.51,1.99,3.03,2.96,4.5c-3.04,1.08-6.43-0.03-8.08-2.76
		c-2.27-3.75-2.06-4.47,2.32-8.5c-0.73-1.69-1.94-3.25-1.94-4.8c0.01-2.46,2.24-3.96,5.18-3.98c1.59-0.01,2.55-0.04,3.07-2.1
		c0.28-1.11,2.53-2.04,4.05-2.43c2.31-0.6,4.17,0.74,4.89,2.85c0.52,1.52,1.1,1.9,2.55,1.63c2.75-0.51,5.58,1.46,5.94,4.23
		c0.35,2.71-0.17,5.26-2.22,7.68c-0.42-1.52-0.75-2.69-1.08-3.87c-0.24-0.02-0.48-0.03-0.71-0.05c-0.4,1.04-0.83,2.08-1.2,3.13
		C471.07,448.62,469.8,448.95,467.52,446.78z M488.02,472.77c1.44,0.64,2.9,1.28,4.36,1.92c0.16-0.17,0.32-0.35,0.49-0.52
		c-0.65-0.91-1.23-1.88-1.96-2.72c-1.71-1.97-1.47-2.79,1.02-3.57c0.71-0.22,1.34-0.7,2.01-1.06c-0.56-0.53-1.04-1.21-1.7-1.55
		c-2.72-1.39-2.8-1.79-0.47-3.79c0.32-0.28,0.77-0.43,1.04-0.74c0.41-0.48,0.72-1.04,1.08-1.57c-0.6-0.23-1.18-0.54-1.8-0.66
		c-0.57-0.11-1.17-0.02-1.78-0.02c0.37-2.83,2-4.26,5.27-4.76c3.15-0.49,5.53,0.55,6.66,2.75c0.32,0.61,1.08,1.44,1.6,1.41
		c2.34-0.13,4.02,0.59,4.94,2.86c0.89,2.21-0.13,3.8-1.58,5.3c-0.23,0.24-0.36,0.58-0.61,1.01c2.22,1.73,5.73,2.8,3.66,6.86
		c-1.67,3.28-3.36,3.87-9.03,2.82c-2.3,3.65-4.95,4.75-8.28,3.44C489.62,478.85,487.5,475.63,488.02,472.77z M518.36,408.91
		c1.99-0.62,3.66-0.1,5.15,1.41c0.66,0.66,1.64,1.31,2.52,1.39c2.36,0.22,4.51,1.1,5.04,3.31c0.36,1.5-0.7,3.35-1.13,5.04
		c-0.29,0.01-0.58,0.01-0.86,0.02c0.92,0.52,1.89,0.97,2.74,1.59c1.67,1.19,2.72,2.73,1.81,4.86c-0.93,2.16-2.17,3.91-4.98,3.68
		c-0.69-0.06-1.76,0.46-2.1,1.04c-1.65,2.81-3.99,4.01-6.79,3.21c-2.48-0.71-3.88-2.98-3.81-6.21c0.25,0.07,0.49,0.17,0.74,0.2
		c0.83,0.13,1.67,0.24,2.51,0.36c-0.41-0.72-0.78-1.47-1.26-2.15c-0.54-0.76-1.18-1.46-2.08-2.54c1.37-0.95,2.58-1.78,3.96-2.73
		c-0.86-0.56-1.98-1.42-3.22-2.04c-1.95-0.97-1.82-2.05-0.36-3.3c0.89-0.75,1.83-1.44,2.75-2.16c-0.04-0.25-0.08-0.5-0.11-0.75
		c-1.5-0.1-3-0.2-4.62-0.31C514.7,410.66,516.31,409.54,518.36,408.91z M545.14,375.65c-1.53,0.65-2.6,1.6-3.47,3.32
		c-0.7,1.37-3.25,2.47-4.96,2.45c-1.63-0.01-3.24-1.63-4.87-2.54c0.12-0.25,0.24-0.51,0.36-0.76c1.16,0,2.32,0,3.78,0
		c-1.88-1.49-3.52-2.78-5.47-4.32c1.47-0.95,2.37-1.53,3.56-2.3c-1.5-0.82-2.81-1.53-4.66-2.53c0.45-1.41,1.03-3.19,1.69-5.26
		c-0.7,0-1.53,0.02-2.37-0.01c-0.61-0.02-1.39,0.09-1.78-0.23c-0.29-0.24-0.26-1.14-0.09-1.65c1.27-3.72,6.64-4.93,9.53-2.28
		c0.59,0.54,1.66,0.55,2.48,0.86c1.52,0.58,3.53,0.81,4.38,1.92c0.82,1.07,0.43,3.07,0.57,4.66c-0.29,0.19-0.58,0.38-0.87,0.57
		c0.68,0.3,1.55,0.43,1.99,0.93c0.95,1.08,2.02,2.26,2.39,3.58C547.81,373.7,546.81,374.94,545.14,375.65z"/>
	
		<radialGradient id="SVGID_00000088116183924349820820000009167168024875181952_" cx="301.1944" cy="280.4037" r="138.8375" gradientUnits="userSpaceOnUse">
		<stop  offset="0" style="stop-color:#FFFD85"/>
		<stop  offset="0.2441" style="stop-color:#EBDA5E"/>
		<stop  offset="0.5229" style="stop-color:#D7B839"/>
		<stop  offset="0.7475" style="stop-color:#CAA422"/>
		<stop  offset="0.8883" style="stop-color:#C69C19"/>
	</radialGradient>
	<path style="fill:url(#SVGID_00000088116183924349820820000009167168024875181952_);" d="M189.15,234.2
		c-20.2,17.33-36.77,37.62-49.19,61.22c-11.14,21.18-17.18,43.52-15.54,67.63c0.05,0.75,0.26,1.5,0.4,2.24
		c0.83-2.26,1.21-4.46,1.63-6.65c2.95-15.48,6.28-30.87,12.22-45.53c9.81-24.2,24.81-44.9,43.1-63.37
		c11.06-11.17,23.17-21.01,36.8-28.86c22.57-13,47.31-18.02,73-19.35c10.29-0.53,20.54-0.11,30.74,1.51
		c11.91,1.9,23.37,5.13,33.96,11.03c8.35,4.65,9.24,10.03,2.37,16.55c-3.69,3.5-8.02,6.32-12.19,9.55c1.35-0.4,2.66-0.73,3.93-1.17
		c10.56-3.7,21.42-6.04,32.6-6.21c6.21-0.1,11.87,1.83,15.64,7.51c1.01,1.53,2.71,2.87,4.39,3.65c5.61,2.62,11.49,4.69,17.02,7.45
		c16.32,8.13,30.04,19.28,39.41,35.22c7.33,12.47,11.28,26.02,12.61,40.35c0.33,3.53,0.05,7.12,0.05,11.08
		c-0.49-0.89-0.82-1.46-1.13-2.04c-3.74-6.89-8.29-13.18-14.32-18.22c-17.24-14.43-37.61-19.97-59.64-20.61
		c-3.62-0.11-7.26,0.08-10.88-0.16c-3.13-0.21-5.76-1.62-7.63-4.29c-1.26-1.79-2.63-3.51-4.07-5.41c-1.84,3.59-4.45,5.48-8.26,5.04
		c-3.71-0.43-5.35-3.28-6.43-6.35c-0.93-2.65-1.43-5.45-2.25-8.69c-0.85,1.1-1.48,1.89-2.1,2.69c-3.7,4.77-6.86,10.12-11.23,14.17
		c-6.37,5.9-13.45,11.08-20.53,16.15c-9.26,6.63-19.17,12.38-27.24,20.58c-2.52,2.56-4.94,5.2-7.41,7.8
		c1.29-0.06,2.19-0.55,3.07-1.05c8.77-4.97,17.39-10.25,26.35-14.84c20.84-10.68,42.86-17.53,66.35-18.94
		c15.29-0.92,30.33,0.58,44.9,5.64c10.71,3.72,20.75,8.59,28.54,17.09c6.42,7.01,11.06,15.16,14.45,24.03
		c0.71,1.86,1.43,3.71,2.28,5.93c0.38-0.78,0.59-1.07,0.67-1.4c3.49-13.9,3.5-27.8,0.16-41.75c-4.54-19-13.04-35.76-27.75-48.94
		c-12.86-11.52-27.51-20.2-43.64-26.32c-2.19-0.83-3.43-2.2-4.62-4.14c-1.36-2.23-3.07-4.41-5.1-6.02
		c-5.01-3.99-10.95-3.06-16.66-2.24c-3.46,0.5-6.83,1.71-10.49,2.67c0.34-0.57,0.49-0.89,0.7-1.15c4.98-6.44,2.21-12.41-3.03-15.68
		c-3.28-2.04-6.71-3.89-10.24-5.48c-14.58-6.55-30.09-9.2-45.9-10.23c-15.84-1.03-31.58-0.07-47.17,3.07
		C234.59,204.47,210.27,216.07,189.15,234.2z"/>
	
		<radialGradient id="SVGID_00000097495497577416405800000010933095117804057271_" cx="293.1994" cy="417.9317" r="99.8723" gradientUnits="userSpaceOnUse">
		<stop  offset="0" style="stop-color:#FFFD85"/>
		<stop  offset="0.2441" style="stop-color:#EBDA5E"/>
		<stop  offset="0.5229" style="stop-color:#D7B839"/>
		<stop  offset="0.7475" style="stop-color:#CAA422"/>
		<stop  offset="0.8883" style="stop-color:#C69C19"/>
	</radialGradient>
	<path style="fill:url(#SVGID_00000097495497577416405800000010933095117804057271_);" d="M378.99,324.07
		c-7.74,0.42-15.52,1.02-23.17,2.24c-23.8,3.8-46.86,10.35-69.09,19.68c-29.19,12.25-54.43,30.09-75.15,54.13
		c-7.4,8.58-14.26,17.56-18.36,28.28c-4.96,12.97-7.24,26.18-3.61,39.96c4.55,17.3,15.13,30.14,29.5,40.22
		c1.51,1.06,3.05,2.08,5,3.41c-2.78-3.79-5.19-7.1-7.64-10.38c-9.28-12.44-12.92-26.32-10.48-41.69
		c2.04-12.87,6.22-25.03,12.65-36.38c13.14-23.19,31.56-41.32,53.67-55.89c15.77-10.4,33.02-17.8,50.53-24.64
		c19.63-7.66,39.95-12.82,60.68-16.43c5.32-0.93,10.64-1.83,15.06-2.59C392.61,323.99,385.79,323.7,378.99,324.07z"/>
	
		<radialGradient id="SVGID_00000088843266157688408240000003643524931096294831_" cx="311.0318" cy="436.32" r="72.4233" gradientUnits="userSpaceOnUse">
		<stop  offset="0" style="stop-color:#FFFD85"/>
		<stop  offset="0.2441" style="stop-color:#EBDA5E"/>
		<stop  offset="0.5229" style="stop-color:#D7B839"/>
		<stop  offset="0.7475" style="stop-color:#CAA422"/>
		<stop  offset="0.8883" style="stop-color:#C69C19"/>
	</radialGradient>
	<path style="fill:url(#SVGID_00000088843266157688408240000003643524931096294831_);" d="M327.05,526.23
		c-0.1-0.11-0.18-0.28-0.3-0.33c-0.71-0.32-1.42-0.61-2.13-0.91c-11.04-4.65-19.69-12-25.28-22.7c-6.06-11.59-8.87-24.09-9.22-37.03
		c-0.2-7.38,0.52-14.83,1.45-22.17c1.68-13.28,5.85-25.85,12.57-37.45c10.36-17.87,24.8-32.25,39.96-45.96
		c4.98-4.5,10.19-8.75,15.68-13.45c-0.87,0.2-1.15,0.19-1.35,0.31c-10.87,6.66-22.01,12.93-32.55,20.09
		c-18.33,12.45-34.75,27.03-47.15,45.68c-9.04,13.61-14.64,28.52-16.13,44.75c-1.29,14.03,1.54,27.41,8.1,39.99
		C282.48,519.64,305.04,527.72,327.05,526.23z"/>
	
		<radialGradient id="SVGID_00000150074459529665567330000010777290311302273952_" cx="298.5711" cy="429.8784" r="87.8406" gradientUnits="userSpaceOnUse">
		<stop  offset="0" style="stop-color:#FFFD85"/>
		<stop  offset="0.2441" style="stop-color:#EBDA5E"/>
		<stop  offset="0.5229" style="stop-color:#D7B839"/>
		<stop  offset="0.7475" style="stop-color:#CAA422"/>
		<stop  offset="0.8883" style="stop-color:#C69C19"/>
	</radialGradient>
	<path style="fill:url(#SVGID_00000150074459529665567330000010777290311302273952_);" d="M274.64,393.49
		c11.02-11.12,23.96-19.56,37.65-26.75c18.76-9.85,37.88-19,56.86-28.42c2.75-1.37,5.57-2.6,8.35-3.9
		c-0.06-0.16-0.11-0.31-0.17-0.47c-1.89,0.44-3.8,0.8-5.66,1.34c-30.09,8.82-59.13,20.25-86.59,35.44
		c-18.14,10.03-33.61,23.32-45.88,40.14c-11.8,16.18-19.05,34-19.55,54.3c-0.33,13.3,2.98,25.42,10.91,36.17
		c6.59,8.92,15.37,15.07,25.4,19.47c4.43,1.94,9.09,3.34,13.65,4.99c0.1-0.24,0.2-0.47,0.3-0.71c-0.84-0.57-1.68-1.12-2.5-1.72
		c-11.84-8.54-19.76-19.82-23.68-33.89c-3.64-13.05-3.02-26.21-0.26-39.24C248.15,428.26,258.81,409.46,274.64,393.49z"/>
	
		<radialGradient id="SVGID_00000059303302718995108380000004434286192926009988_" cx="301.1001" cy="275.848" r="60.9651" gradientUnits="userSpaceOnUse">
		<stop  offset="0" style="stop-color:#FFFD85"/>
		<stop  offset="0.2441" style="stop-color:#EBDA5E"/>
		<stop  offset="0.5229" style="stop-color:#D7B839"/>
		<stop  offset="0.7475" style="stop-color:#CAA422"/>
		<stop  offset="0.8883" style="stop-color:#C69C19"/>
	</radialGradient>
	<path style="fill:url(#SVGID_00000059303302718995108380000004434286192926009988_);" d="M249.77,268.06
		c-7.47,4.98-15,9.86-22.33,15.03c-1.31,0.92-2.87,3.89-2.43,4.46c1.57,2.04,3.79,0.66,5.51-0.41c3.22-2,6.34-4.19,9.46-6.35
		c12.72-8.79,25.63-17.23,40.42-22.22c4.1-1.38,8.3-2.49,12.46-3.72c0.27,2.97,0.22,5.59,0.78,8.07
		c1.94,8.56,10.35,14.39,18.24,12.85c4.7-0.92,9.24-5.55,9.74-9.94c0.39-3.48-1.1-4.74-4.34-3.66c-0.65,0.22-1.27,0.61-1.94,0.71
		c-1.26,0.19-2.59,0.49-3.81,0.29c-2.19-0.36-3.6-2.01-3.77-4.06c-0.11-1.34,0.54-3.18,1.52-4.06c1.7-1.52,3.65-0.53,5.08,0.87
		c1.69,1.66,3.49,1.76,5.7,1.4c4.44-0.71,6.23,0.91,6.18,5.47c-0.05,4.45-1.34,8.53-4.56,11.75c-3.2,3.2-6.52,6.27-9.93,9.53
		c7.25-0.36,14.33-1.33,20.87-4.94c-4.77,7.92-10.93,14.33-19.95,16.71c-6.53,1.72-13.36,2.72-20.11,3.15
		c-13.15,0.84-25.75,3.65-37.68,9.14c-4.32,1.99-8.25,4.83-12.35,7.28c0.15,0.27,0.31,0.54,0.46,0.81
		c4.94-2.17,9.78-4.58,14.82-6.46c10.78-4.04,21.77-7.11,33.5-6.56c5.93,0.28,11.92,0.43,17.82-0.04c6.73-0.54,13.22-2.45,19-6.15
		c7.18-4.59,11.76-11.24,14.88-19.06c0.42-1.05,1.52-2.37,2.5-2.55c7.11-1.33,11.07-6.03,13.41-12.33
		c3.05-8.18,8.7-14.41,14.75-20.37c1.1-1.09,2.41-1.96,3.62-2.93c-0.1-0.29-0.2-0.58-0.29-0.87c-5.12,0.54-10.33,0.64-15.32,1.75
		c-4.14,0.92-8.02,3.04-12.03,4.57c-5.9,2.26-11.51,2.13-17.01-1.51c-3.5-2.32-7.34-4.16-11.13-6.03
		c-3.69-1.82-7.61-2.78-11.77-1.87c-2.95,0.65-5.6,1.86-8.01,4.85c1.97-0.24,3.24-0.37,4.5-0.55c5.15-0.74,10.23-0.86,14.44,2.85
		c0.84,0.74,1.55,2.24,1.4,3.26c-0.12,0.8-1.58,1.81-2.58,1.98c-2.18,0.39-4.5,0.66-6.67,0.34c-8.85-1.3-17.69-2.67-26.48-4.32
		c-14.53-2.73-28.85-2.43-42.95,2.26c-2.9,0.96-5.65,2.36-8.47,3.56c6.98-0.8,13.74-2.27,20.57-2.71c6.85-0.44,13.9-1.02,20.99,2.23
		c-1.6,1.35-2.75,2.52-4.08,3.42C264.87,258.05,257.31,263.04,249.77,268.06z"/>
	
		<radialGradient id="SVGID_00000077286479869290759600000016828217118010414208_" cx="360.4854" cy="436.8109" r="54.3432" gradientUnits="userSpaceOnUse">
		<stop  offset="0" style="stop-color:#FFFD85"/>
		<stop  offset="0.2441" style="stop-color:#EBDA5E"/>
		<stop  offset="0.5229" style="stop-color:#D7B839"/>
		<stop  offset="0.7475" style="stop-color:#CAA422"/>
		<stop  offset="0.8883" style="stop-color:#C69C19"/>
	</radialGradient>
	<path style="fill:url(#SVGID_00000077286479869290759600000016828217118010414208_);" d="M385.4,509.51
		c-1.67-16.33-1.11-33.14-6.16-49.23c-1.72,6.05-5.04,7.36-9.77,3.14c-3.23-2.88-6.09-6.4-8.34-10.1
		c-8.71-14.28-14.29-29.7-16.31-46.41c-1.17-9.69-1.21-19.28,0.6-28.86c0.88-4.66,1.89-9.3,2.84-13.95
		c-2.66,3.73-5.09,7.6-6.85,11.76c-6.06,14.29-6.88,29.19-4.81,44.42c2.49,18.33,9.53,34.79,20.21,49.74
		c4.36,6.1,9.47,11.67,13.87,17.75C375.8,494.88,380.52,502.27,385.4,509.51z"/>
	
		<radialGradient id="SVGID_00000081612461751803255480000001473301014145015735_" cx="195.8255" cy="408.643" r="51.865" gradientUnits="userSpaceOnUse">
		<stop  offset="0" style="stop-color:#FFFD85"/>
		<stop  offset="0.2441" style="stop-color:#EBDA5E"/>
		<stop  offset="0.5229" style="stop-color:#D7B839"/>
		<stop  offset="0.7475" style="stop-color:#CAA422"/>
		<stop  offset="0.8883" style="stop-color:#C69C19"/>
	</radialGradient>
	<path style="fill:url(#SVGID_00000081612461751803255480000001473301014145015735_);" d="M205.24,368.13
		c4.81-9.43,10-18.67,15.32-28.54c-0.65,0.46-0.87,0.59-1.05,0.76c-11.96,11.38-22.04,24.29-30.94,38.15
		c-10.35,16.13-16.44,33.66-17.39,52.9c-0.63,12.66,2.08,24.65,7.04,36.2c1.46,3.41,3.11,6.73,4.68,10.1
		c0.09-3.26-0.23-6.34-0.47-9.42c-1.2-15.23-0.48-30.37,2.46-45.37C188.67,403.53,196.34,385.59,205.24,368.13z"/>
	
		<radialGradient id="SVGID_00000167359817965171763760000009890928130818131888_" cx="161.5894" cy="343.193" r="52.5717" gradientUnits="userSpaceOnUse">
		<stop  offset="0" style="stop-color:#FFFD85"/>
		<stop  offset="0.2441" style="stop-color:#EBDA5E"/>
		<stop  offset="0.5229" style="stop-color:#D7B839"/>
		<stop  offset="0.7475" style="stop-color:#CAA422"/>
		<stop  offset="0.8883" style="stop-color:#C69C19"/>
	</radialGradient>
	<path style="fill:url(#SVGID_00000167359817965171763760000009890928130818131888_);" d="M189.86,275.43
		c-0.77,0.56-1.52,1.13-2.26,1.73c-8.44,6.91-16.19,14.51-23.31,22.8c-11.69,13.61-21.04,28.59-26.82,45.62
		c-5.82,17.17-7.46,34.65-2.66,52.37c1.23,4.56,2.97,8.97,4.48,13.45c-0.55-52.21,19.87-96.22,51.88-136.41
		C190.3,275.27,190.04,275.3,189.86,275.43z"/>
	
		<radialGradient id="SVGID_00000000926412638112528770000003941041102183301526_" cx="170.1514" cy="381.5231" r="46.8809" gradientUnits="userSpaceOnUse">
		<stop  offset="0" style="stop-color:#FFFD85"/>
		<stop  offset="0.2441" style="stop-color:#EBDA5E"/>
		<stop  offset="0.5229" style="stop-color:#D7B839"/>
		<stop  offset="0.7475" style="stop-color:#CAA422"/>
		<stop  offset="0.8883" style="stop-color:#C69C19"/>
	</radialGradient>
	<path style="fill:url(#SVGID_00000000926412638112528770000003941041102183301526_);" d="M186.59,331.54
		c2.21-4.04,4.28-8.17,6.41-12.25c-1.2,0.71-2.02,1.68-2.93,2.56c-11.87,11.49-21.8,24.49-29.88,38.89
		c-7.22,12.87-11.72,26.74-12.77,41.38c-1.11,15.51,5.18,29.04,13.64,41.64c-0.64-3.98-1.53-7.93-1.86-11.93
		c-1.24-15.04,0.96-29.79,4.38-44.38C168.25,367.59,176.85,349.32,186.59,331.54z"/>
	
		<radialGradient id="SVGID_00000026844617341738742930000008747608937140104363_" cx="379.8291" cy="320.2607" r="48.4916" gradientUnits="userSpaceOnUse">
		<stop  offset="0" style="stop-color:#FFFD85"/>
		<stop  offset="0.2441" style="stop-color:#EBDA5E"/>
		<stop  offset="0.5229" style="stop-color:#D7B839"/>
		<stop  offset="0.7475" style="stop-color:#CAA422"/>
		<stop  offset="0.8883" style="stop-color:#C69C19"/>
	</radialGradient>
	<path style="fill:url(#SVGID_00000026844617341738742930000008747608937140104363_);" d="M442.2,327.01c1.76-0.14,4-1.45,4.94-2.93
		c1.13-1.78-0.34-3.74-1.84-5.19c-0.25-0.24-0.49-0.52-0.79-0.66c-2.48-1.2-4.86-2.88-7.47-3.45c-7.81-1.69-15.67-3.23-23.59-4.31
		c-12.48-1.69-25.04-1.27-37.49,0.27c-14.83,1.84-29.25,5.65-43.21,10.98c-6.97,2.66-13.76,5.8-20.63,8.72
		c0.08,0.23,0.15,0.46,0.23,0.69c7.21-1.59,14.4-3.22,21.62-4.75c14.52-3.08,29.11-5.74,43.97-6.43
		c18.99-0.88,37.74,0.87,56.13,5.94C436.7,326.63,439.53,327.22,442.2,327.01z"/>
	
		<radialGradient id="SVGID_00000072971105366307199040000010208932043601181095_" cx="339.2861" cy="459.4222" r="40.4373" gradientUnits="userSpaceOnUse">
		<stop  offset="0" style="stop-color:#FFFD85"/>
		<stop  offset="0.2441" style="stop-color:#EBDA5E"/>
		<stop  offset="0.5229" style="stop-color:#D7B839"/>
		<stop  offset="0.7475" style="stop-color:#CAA422"/>
		<stop  offset="0.8883" style="stop-color:#C69C19"/>
	</radialGradient>
	<path style="fill:url(#SVGID_00000072971105366307199040000010208932043601181095_);" d="M338.89,502.46
		c7.4,4.81,15.42,7.88,24.03,9.04c-31.41-27.86-44.12-62.76-40.48-104.15c-0.79,1.31-1.41,2.53-1.81,3.82
		c-6.8,21.92-6.65,43.83,0.53,65.61C324.53,487,329.46,496.32,338.89,502.46z"/>
	
		<radialGradient id="SVGID_00000129899319422075026730000015729673580771346593_" cx="375.3521" cy="424.6267" r="39.8775" gradientUnits="userSpaceOnUse">
		<stop  offset="0" style="stop-color:#FFFD85"/>
		<stop  offset="0.2441" style="stop-color:#EBDA5E"/>
		<stop  offset="0.5229" style="stop-color:#D7B839"/>
		<stop  offset="0.7475" style="stop-color:#CAA422"/>
		<stop  offset="0.8883" style="stop-color:#C69C19"/>
	</radialGradient>
	<path style="fill:url(#SVGID_00000129899319422075026730000015729673580771346593_);" d="M389.23,477.15
		c0.8-1.38,1.35-2.3,1.87-3.24c5.42-9.79,6.64-19.87,1.62-30.16c-2.18-4.48-4.76-8.78-7.33-13.06c-6-9.97-12.37-19.72-18.08-29.84
		c-5.02-8.89-9.32-18.19-11.95-28.74c-0.35,0.71-0.46,0.84-0.47,0.98c-0.03,0.43-0.02,0.86-0.03,1.29
		c-0.4,14.2,3.07,27.53,9.64,39.97c5.26,9.96,11.12,19.61,16.81,29.34c4.48,7.67,8.1,15.58,7.93,24.74
		C389.18,471.15,389.23,473.86,389.23,477.15z"/>
	
		<radialGradient id="SVGID_00000154387488695604644890000006424109334211384709_" cx="262.287" cy="287.6373" r="33.6115" gradientUnits="userSpaceOnUse">
		<stop  offset="0" style="stop-color:#FFFD85"/>
		<stop  offset="0.2441" style="stop-color:#EBDA5E"/>
		<stop  offset="0.5229" style="stop-color:#D7B839"/>
		<stop  offset="0.7475" style="stop-color:#CAA422"/>
		<stop  offset="0.8883" style="stop-color:#C69C19"/>
	</radialGradient>
	<path style="fill:url(#SVGID_00000154387488695604644890000006424109334211384709_);" d="M223.68,308.95
		c4.03-3.77,7.85-7.82,12.2-11.19c16.34-12.68,35.11-15.48,55.1-12.94c4.12,0.52,8.26,0.84,12.39,1.25
		c-9.31-5.05-17.68-10.66-19.42-22.36c-0.56,0.32-0.91,0.53-1.27,0.72c-8.84,4.84-17.44,10.17-26.57,14.37
		c-10,4.6-18.68,10.7-26.03,18.78c-3.71,4.08-7.03,8.46-8.84,14C222.04,310.7,222.8,309.77,223.68,308.95z"/>
	
		<radialGradient id="SVGID_00000074401448228711583890000014346491118403401395_" cx="371.5798" cy="268.188" r="11.8143" gradientUnits="userSpaceOnUse">
		<stop  offset="0" style="stop-color:#FFFD85"/>
		<stop  offset="0.2441" style="stop-color:#EBDA5E"/>
		<stop  offset="0.5229" style="stop-color:#D7B839"/>
		<stop  offset="0.7475" style="stop-color:#CAA422"/>
		<stop  offset="0.8883" style="stop-color:#C69C19"/>
	</radialGradient>
	<path style="fill:url(#SVGID_00000074401448228711583890000014346491118403401395_);" d="M366.24,263.33
		c-2.56,6.39-1.91,12.84-0.2,20c3.63-10.41,5.44-20.94,12.59-29.06c-1.2-1.62-2.47-1.44-3.97-0.69
		C370.49,255.68,367.93,259.13,366.24,263.33z"/>
</g>
</svg>
